<?xml version="1.0" encoding="UTF-8"?>
<svg width="1200pt" height="1200pt" version="1.1" viewBox="0 0 1200 1200" xmlns="http://www.w3.org/2000/svg">
 <path d="m745.01 714.29c0 17.023-2.9922 34.074-8.9727 50.273l54.453 31.449c5.2422-13.551 8.4766-27.523 9.8086-41.527l364.18 188.36-84.289 146.02-345.23-221.2c11.465-8.1641 21.926-17.93 31.055-29.238l-54.523-31.48c-27.652 33.082-68.004 52.355-111.49 52.355-43.555 0-83.836-19.164-111.5-52.355l-54.523 31.465c9.1133 11.309 19.602 21.09 31.066 29.254l-345.23 221.2-84.289-146.02 364.18-188.36c1.332 14.004 4.5625 27.965 9.793 41.5l54.453-31.438c-5.9805-16.188-8.9727-33.238-8.9727-50.258 0-70.695 50.969-131.06 120.49-142.94v-62.902c-14.328 2.2539-28.035 6.4336-40.805 12.273l-18.949-409.58h168.58l-18.949 409.58c-12.77-5.8398-26.477-10.02-40.805-12.273v62.902c69.277 11.891 120.47 72.141 120.47 142.94zm-87.703-57.305c31.637 31.648 31.637 82.957 0 114.61-31.648 31.637-82.957 31.637-114.61 0-31.637-31.648-31.637-82.957 0-114.61 31.648-31.637 82.957-31.637 114.61 0zm38.637 57.305c0-53.078-42.875-95.953-95.938-95.953-52.992 0-95.953 42.961-95.953 95.953 0 53.035 42.859 95.938 95.953 95.938 24.59 0 49.168-9.3555 67.906-28.035 18.68-18.738 28.035-43.312 28.035-67.906z"/>
</svg>
