<svg xmlns="http://www.w3.org/2000/svg" xmlns:xlink="http://www.w3.org/1999/xlink" version="1.1" x="0px" y="0px" viewBox="0 0 484.211 609.99125" style="enable-background:new 0 0 484.211 487.993;" xml:space="preserve"><g><rect x="173.763" y="261.707" width="64.343" height="58.803"/><rect x="101.42" y="261.707" width="64.343" height="58.803"/><rect x="173.763" y="328.51" width="64.343" height="58.803"/><rect x="246.105" y="328.51" width="64.343" height="58.803"/><rect x="246.105" y="261.707" width="64.343" height="58.803"/><rect x="101.42" y="328.51" width="64.343" height="58.803"/><path d="M242.105,34.146c20.326,0,38.715,8.831,47.454,22.381c3.916-2.506,8.21-4.447,12.734-5.846   c1.158-6.374,1.867-18.483-4.475-23.177c-8.691-6.432-23.39,0.921-23.536,0.997c-1.224,0.638-2.691,0.599-3.882-0.103   c-1.189-0.702-1.932-1.968-1.965-3.349c-0.005-0.214-0.745-22.05-13.964-24.746c-13.524-2.757-23.742,14.229-23.844,14.401   c-1.084,1.832-3.416,2.5-5.299,1.516c-8.132-4.237-26.525-10.814-31.464-4.097c-4.235,5.76,4.47,21.368,12.992,32.246   C216.337,37.951,228.796,34.146,242.105,34.146z"/><path d="M56.647,107.132c8.798-8.867,20.634-14.121,33.408-14.121c5.097,0,10.071,0.827,14.852,2.465   c1.827-14.312,10.515-27.464,23.586-36.312c0.414-6.034,0.894-25.154-9.381-26.847c-12.563-2.075-20.151,20.835-20.224,21.067   c-0.448,1.42-1.647,2.474-3.113,2.735c-1.464,0.26-2.955-0.313-3.866-1.491c-3.494-4.497-14.361-15.559-22.556-12.705   c-7.823,2.719-7.328,18.981-6.537,24.464c0.182,1.261-0.248,2.536-1.158,3.429s-2.189,1.298-3.449,1.093   c-0.281-0.047-28.401-4.259-30.954,8.355C25.375,88.563,43.328,100.724,56.647,107.132z"/><rect x="318.448" y="328.51" width="64.343" height="58.803"/><path d="M39.725,124.826c1.794,0,3.584,0.121,5.355,0.359c1.619-4.261,3.736-8.203,6.265-11.76   c-5.612-2.835-14.832-8.017-21.976-14.577C19.418,99.064,9.19,101.35,0,105.432c6.941,9.546,16.36,16.642,28.052,21.153   C31.708,125.45,35.634,124.826,39.725,124.826z"/><path d="M379.303,95.476c4.78-1.638,9.755-2.465,14.852-2.465c12.774,0,24.61,5.254,33.408,14.121   c13.32-6.408,31.272-18.57,29.391-27.867c-2.552-12.613-30.674-8.401-30.957-8.354c-1.258,0.206-2.54-0.203-3.45-1.097   c-0.909-0.895-1.338-2.168-1.154-3.43c0.79-5.479,1.286-21.741-6.538-24.46c-8.198-2.848-19.062,8.209-22.559,12.708   c-0.913,1.174-2.404,1.746-3.866,1.485c-1.464-0.263-2.663-1.314-3.11-2.733c-0.072-0.228-7.704-23.125-20.224-21.067   c-10.274,1.693-9.795,20.808-9.381,26.847C368.788,68.012,377.477,81.164,379.303,95.476z"/><path d="M167.789,97.871c-14.943,0-26.108,5.869-26.108,11.117c0,5.248,11.166,11.117,26.108,11.117   c14.943,0,26.109-5.869,26.109-11.117C193.897,103.741,182.732,97.871,167.789,97.871z"/><path d="M388.856,164.511c6.605-8.726,10.251-18.563,9.29-25.064c-0.307-2.075-1.067-3.566-2.259-4.435   c-4.713-3.432-17.247,2.329-26.968,15.17c-5.519,7.291-8.962,15.359-9.386,21.609h22.758   C384.619,169.622,386.828,167.19,388.856,164.511z"/><rect x="318.448" y="261.707" width="64.343" height="58.803"/><path d="M454.842,98.847c-7.144,6.56-16.365,11.742-21.976,14.577c2.529,3.558,4.647,7.499,6.265,11.76   c1.771-0.239,3.561-0.359,5.355-0.359c4.09,0,8.017,0.625,11.673,1.76c11.692-4.51,21.111-11.607,28.052-21.153   C475.021,101.35,464.793,99.064,454.842,98.847z"/><path d="M245.196,145.428c-0.148-0.006-0.295-0.016-0.442-0.026c-0.114-0.007-0.227-0.018-0.342-0.018   c-9.495,0-17.219,7.541-17.219,16.81c0,3.447,1.093,6.794,3.092,9.598h73.632c5.755-4.104,9.427-12.108,9.427-20.76   c0-12.992-7.977-23.562-17.781-23.562c-4.131,0-8.171,1.957-11.375,5.511c-1.115,1.238-2.883,1.654-4.435,1.044   c-1.552-0.61-2.562-2.119-2.536-3.786c0.069-4.422-1.123-8.968-3.448-13.146c-5.961-10.71-17.499-15.843-25.721-11.442   c-3.238,1.733-5.564,4.741-6.726,8.698c-1.676,5.705-0.699,12.459,2.68,18.53c1.171,2.104,2.606,4.054,4.266,5.794   c1.126,1.182,1.421,2.929,0.746,4.416C248.338,144.573,246.827,145.502,245.196,145.428z"/><path d="M444.486,132.826c-2.407,0-4.805,0.271-7.128,0.804c-2.045,0.467-4.106-0.721-4.72-2.727   c-5.478-17.879-20.943-29.892-38.483-29.892c-5.82,0-11.452,1.308-16.739,3.888c-1.242,0.606-2.709,0.529-3.882-0.207   c-1.171-0.736-1.879-2.024-1.873-3.407c0.084-17.85-13.711-35.143-33.547-42.052c-16.836-5.865-35.004-3.459-47.412,6.28   c-0.959,0.753-2.21,1.029-3.396,0.745c-1.186-0.282-2.179-1.091-2.696-2.195c-6.137-13.109-23.218-21.917-42.505-21.917   s-36.368,8.808-42.505,21.917c-0.517,1.104-1.51,1.913-2.696,2.195c-1.184,0.285-2.437,0.009-3.396-0.745   c-12.408-9.739-30.574-12.145-47.412-6.28c-19.836,6.91-33.631,24.202-33.547,42.052c0.006,1.383-0.702,2.671-1.873,3.406   c-1.171,0.737-2.639,0.814-3.881,0.208c-5.288-2.58-10.919-3.888-16.739-3.888c-17.54,0-33.005,12.013-38.483,29.892   c-0.615,2.006-2.675,3.193-4.72,2.727c-2.323-0.534-4.721-0.804-7.128-0.804c-15.037,0-27.27,10.375-27.27,23.127   c0,5.954,2.624,11.531,7.417,15.838h80.029c-0.302-0.347-0.612-0.683-0.908-1.039c-7.822-9.406-11.983-20.021-11.132-28.396   c0.433-4.256,2.183-7.723,5.063-10.026c8.648-6.917,24.875-0.97,36.94,13.538c7.007,8.426,11.091,18.066,11.22,25.924h80.099   c-1.288-3.018-1.989-6.272-1.989-9.598c0-11.456,7.933-21.123,18.678-23.963c-0.297-0.48-0.583-0.968-0.859-1.461   c-4.415-7.933-5.642-16.926-3.366-24.675c1.755-5.975,5.529-10.768,10.626-13.497c12.047-6.448,28.414,0.102,36.486,14.604   c1.668,2.997,2.885,6.157,3.623,9.371c3.454-2.029,7.266-3.104,11.181-3.104c14.216,0,25.781,14.159,25.781,31.562   c0,7.82-2.315,15.124-6.334,20.76h36.527c0.418-7.995,4.389-17.697,11.004-26.437c12.385-16.361,28.745-23.586,38.055-16.81   c2.952,2.148,4.841,5.514,5.465,9.732c1.279,8.649-2.869,20.551-10.825,31.062c-0.634,0.838-1.286,1.654-1.951,2.452h71.055   c4.793-4.308,7.417-9.884,7.417-15.838C471.756,143.2,459.523,132.826,444.486,132.826z M167.789,128.105   c-19.445,0-34.108-8.219-34.108-19.117s14.664-19.117,34.108-19.117c19.445,0,34.109,8.218,34.109,19.117   S187.234,128.105,167.789,128.105z"/><path d="M399.005,210.417h-313.8c-16.337,0-29.629,13-29.629,28.979v248.596H93.42V425.19c0-2.209,1.791-4,4-4h289.371   c2.209,0,4,1.791,4,4v62.803h37.843V239.397C428.634,223.417,415.343,210.417,399.005,210.417z M390.791,391.313   c0,2.209-1.791,4-4,4H97.42c-2.209,0-4-1.791-4-4V257.707c0-2.209,1.791-4,4-4h289.371c2.209,0,4,1.791,4,4V391.313z"/><path d="M133.095,171.791c-0.098-5.254-2.839-12.94-9.383-20.809c-9.443-11.355-21.406-15.913-25.792-12.405   c-1.181,0.944-1.887,2.487-2.101,4.587c-0.619,6.095,3.041,14.916,9.325,22.473c1.893,2.276,3.941,4.331,6.088,6.154H133.095z"/><path d="M22.399,399.9c0,11.739,9.774,21.29,21.788,21.29h3.39V239.397c0-20.391,16.88-36.979,37.629-36.979h313.8   c20.749,0,37.629,16.589,37.629,36.979V421.19h3.39c12.014,0,21.788-9.551,21.788-21.29V179.791H22.399V399.9z"/></g><text x="0" y="502.993" fill="#000000" font-size="5px" font-weight="bold" font-family="'Helvetica Neue', Helvetica, Arial-Unicode, Arial, Sans-serif">Created by Amethyst Studio</text><text x="0" y="507.993" fill="#000000" font-size="5px" font-weight="bold" font-family="'Helvetica Neue', Helvetica, Arial-Unicode, Arial, Sans-serif">from the Noun Project</text></svg>